<svg xmlns="http://www.w3.org/2000/svg" width="525.85" height="34.95" viewBox="0 0 525.85 34.95">
  <path id="パス_1" data-name="パス 1" d="M1.45-33.75v5.9H11.3V0h5.95V-27.85H27.1v-5.9Zm41.25,0c-7.95,0-11.3,3.8-11.3,9.2,0,3.7,1.6,6.3,4.75,7.6-3.1,1.3-4.85,3.9-4.85,7.75C31.3-3.95,34.55,0,42.55,0h17.1V-5.9H42.55c-3.45,0-5.1-1.6-5.1-4.25,0-2.75,1.75-4.1,5.15-4.1H59.35V-19.6H42.75c-3.4,0-5.15-1.25-5.15-4,0-2.6,1.55-4.25,5.1-4.25H59.6v-5.9Zm38.6,0c-9.8,0-15.25,5.55-15.25,16.9C66.05-5.55,71.45,0,81.3,0H94.35V-5.9H81.3c-6.55,0-9.35-3.25-9.35-10.95,0-7.75,2.85-11,9.35-11H94.35v-5.9Zm20.1,0V0h5.9V-14.1h17.25V0h5.95V-33.75h-5.95V-20H107.3V-33.75Zm47.95,0v5.9h9.85V0h5.95V-27.85H175v-5.9Zm44.2,0c-9.8,0-15.25,5.6-15.25,16.95C178.3-5.5,183.7,0,193.55,0h4.6C208,0,213.4-5.5,213.4-16.8c0-11.35-5.45-16.95-15.25-16.95Zm4.6,5.9c6.5,0,9.3,3.3,9.3,11,0,7.75-2.8,10.95-9.3,10.95h-4.6c-6.55,0-9.35-3.2-9.35-10.9,0-7.75,2.85-11.05,9.35-11.05Zm21.95-5.9v23C220.1-3.65,223.8,0,231,0h7.1c7.2,0,10.95-3.65,10.95-10.75v-23h-5.8V-11.2c0,3.35-1.75,5.3-5.55,5.3h-6c-3.9,0-5.6-1.95-5.6-5.3V-33.75Zm50.85,0c-9.8,0-15.25,5.55-15.25,16.9C255.7-5.55,261.1,0,270.95,0H284V-5.9H270.95c-6.55,0-9.35-3.25-9.35-10.95,0-7.75,2.85-11,9.35-11H284v-5.9Zm20.1,0V0h5.9V-14.1H314.2V0h5.95V-33.75H314.2V-20H296.95V-33.75Zm47.95,0v5.9h9.85V0h5.95V-27.85h9.85v-5.9Zm28.75,0,13.6,19.2V0h5.95V-14.55l13.6-19.2h-7L384.35-19.3,374.9-33.75Zm37.8,0v5.9H423.1c3.2,0,4.65,2.05,4.65,4.5a4.357,4.357,0,0,1-4.7,4.65H410.9c-3.7,0-5.3,1.55-5.3,5.35V0h5.9V-12.2a.745.745,0,0,1,.85-.85h10.5c7.9,0,10.85-5.5,10.85-10.6,0-5.4-3.25-10.1-10.85-10.1Zm34.05,0V0h5.9V-33.75Zm19.9,7.05a1.818,1.818,0,0,1,2.05-1.95,2.083,2.083,0,0,1,2.1,1.45L473.5-5.65C474.9-1.8,477.05.6,481.75.6c5.2,0,7.75-2.95,7.75-7.4V-33.75h-5.95v26.7a1.814,1.814,0,0,1-2,1.9,2.279,2.279,0,0,1-2.15-1.4L469.55-28.1c-1.4-3.85-3.5-6.25-8.2-6.25-5.25,0-7.75,2.95-7.75,7.35V0h5.9Zm52.1-7.05c-9.8,0-15.25,5.55-15.25,16.9C496.35-5.55,501.75,0,511.6,0h5.2c7.55,0,10.5-4.65,10.5-10.55,0-5.85-2.95-9.55-8.95-9.55h-8.1v5.15h7.5c2.75,0,4.15,1.6,4.15,4.3,0,2.75-1.4,4.75-4.7,4.75h-5.6c-6.55,0-9.35-3.25-9.35-10.95,0-7.75,2.85-11,9.35-11h13.9v-5.9Z" transform="translate(-1.45 34.35)" fill="#454545"/>
</svg>
